<?xml version="1.0" encoding="UTF-8" standalone="no"?>
<svg
   xmlns:dc="http://purl.org/dc/elements/1.1/"
   xmlns:cc="http://creativecommons.org/ns#"
   xmlns:rdf="http://www.w3.org/1999/02/22-rdf-syntax-ns#"
   xmlns:svg="http://www.w3.org/2000/svg"
   xmlns="http://www.w3.org/2000/svg"
   xmlns:xlink="http://www.w3.org/1999/xlink"
   xmlns:sodipodi="http://sodipodi.sourceforge.net/DTD/sodipodi-0.dtd"
   xmlns:inkscape="http://www.inkscape.org/namespaces/inkscape"
   id="svg4379"
   height="128"
   width="128"
   version="1.1"
   inkscape:version="0.91 r13725"
   sodipodi:docname="com.github.bbuhler.hostsmanager.svg"
   inkscape:export-xdpi="90"
   inkscape:export-ydpi="90">
  <sodipodi:namedview
     pagecolor="#ffffff"
     bordercolor="#666666"
     borderopacity="1"
     objecttolerance="10"
     gridtolerance="10"
     guidetolerance="10"
     inkscape:pageopacity="0"
     inkscape:pageshadow="2"
     inkscape:window-width="1600"
     inkscape:window-height="837"
     id="namedview51"
     showgrid="false"
     inkscape:zoom="5.2149125"
     inkscape:cx="34.726977"
     inkscape:cy="60.346135"
     inkscape:window-x="0"
     inkscape:window-y="30"
     inkscape:window-maximized="1"
     inkscape:current-layer="svg4379"
     showguides="true"
     inkscape:guide-bbox="true" />
  <defs
     id="defs4381">
    <linearGradient
       gradientTransform="matrix(0.89553576,0,0,-0.89663265,6.6836208,69.705837)"
       gradientUnits="userSpaceOnUse"
       xlink:href="#linearGradient4113"
       id="linearGradient3149"
       y2="3.4508991"
       x2="76.523361"
       y1="-9.023138"
       x1="76.523361" />
    <linearGradient
       id="linearGradient4113">
      <stop
         offset="0"
         style="stop-color:#000000;stop-opacity:1"
         id="stop4115" />
      <stop
         offset="1"
         style="stop-color:#000000;stop-opacity:0"
         id="stop4117" />
    </linearGradient>
    <linearGradient
       gradientTransform="matrix(2.7297298,0,0,2.7297298,-1.5135124,1.486514)"
       gradientUnits="userSpaceOnUse"
       xlink:href="#linearGradient3924-776"
       id="linearGradient3159"
       y2="43"
       x2="23.99999"
       y1="4.999989"
       x1="23.99999" />
    <linearGradient
       id="linearGradient3924-776">
      <stop
         offset="0"
         style="stop-color:#ffffff;stop-opacity:1"
         id="stop3124" />
      <stop
         offset="0.06316455"
         style="stop-color:#ffffff;stop-opacity:0.23529412"
         id="stop3126" />
      <stop
         offset="0.95056331"
         style="stop-color:#ffffff;stop-opacity:0.15686275"
         id="stop3128" />
      <stop
         offset="1"
         style="stop-color:#ffffff;stop-opacity:0.39215687"
         id="stop3130" />
    </linearGradient>
    <radialGradient
       gradientTransform="matrix(0,25.083279,-30.794253,0,372.81658,-208.0918)"
       gradientUnits="userSpaceOnUse"
       xlink:href="#linearGradient2867-449-88-871-390-598-476-591-434-148-57-177-8-3-3-6-4-8-8-8-5"
       id="radialGradient3395"
       fy="9.9571075"
       fx="6.2001843"
       r="12.671875"
       cy="9.9571075"
       cx="6.7304144" />
    <linearGradient
       id="linearGradient2867-449-88-871-390-598-476-591-434-148-57-177-8-3-3-6-4-8-8-8-5">
      <stop
         offset="0"
         style="stop-color:#919caf;stop-opacity:1"
         id="stop3750-1-0-7-6-6-1-3-9-3" />
      <stop
         offset="0.26238"
         style="stop-color:#68758e;stop-opacity:1"
         id="stop3752-3-7-4-0-32-8-923-0-7" />
      <stop
         offset="0.704952"
         style="stop-color:#485a6c;stop-opacity:1"
         id="stop3754-1-8-5-2-7-6-7-1-9" />
      <stop
         offset="1"
         style="stop-color:#444c5c;stop-opacity:1"
         id="stop3756-1-6-2-6-6-1-96-6-0" />
    </linearGradient>
    <radialGradient
       gradientTransform="matrix(2.003784,0,0,1.4,27.98813,-17.4)"
       gradientUnits="userSpaceOnUse"
       xlink:href="#linearGradient3688-166-749-5"
       id="radialGradient2455-1"
       fy="43.5"
       fx="4.9929786"
       r="2.5"
       cy="43.5"
       cx="4.9929786" />
    <linearGradient
       id="linearGradient3688-166-749-5">
      <stop
         offset="0"
         style="stop-color:#181818;stop-opacity:1"
         id="stop2883-0" />
      <stop
         offset="1"
         style="stop-color:#181818;stop-opacity:0"
         id="stop2885-5" />
    </linearGradient>
    <radialGradient
       gradientTransform="matrix(2.003784,0,0,1.4,-20.01187,-104.4)"
       gradientUnits="userSpaceOnUse"
       xlink:href="#linearGradient3688-464-309-8"
       id="radialGradient2457-5"
       fy="43.5"
       fx="4.9929786"
       r="2.5"
       cy="43.5"
       cx="4.9929786" />
    <linearGradient
       id="linearGradient3688-464-309-8">
      <stop
         offset="0"
         style="stop-color:#181818;stop-opacity:1"
         id="stop2889-9" />
      <stop
         offset="1"
         style="stop-color:#181818;stop-opacity:0"
         id="stop2891-4" />
    </linearGradient>
    <linearGradient
       gradientUnits="userSpaceOnUse"
       xlink:href="#linearGradient3702-501-757-0"
       id="linearGradient2459-7"
       y2="39.999443"
       x2="25.058096"
       y1="47.027729"
       x1="25.058096" />
    <linearGradient
       id="linearGradient3702-501-757-0">
      <stop
         offset="0"
         style="stop-color:#181818;stop-opacity:0"
         id="stop2895-0" />
      <stop
         offset="0.5"
         style="stop-color:#181818;stop-opacity:1"
         id="stop2897-2" />
      <stop
         offset="1"
         style="stop-color:#181818;stop-opacity:0"
         id="stop2899-6" />
    </linearGradient>
    <linearGradient
       id="linearGradient3811">
      <stop
         offset="0"
         style="stop-color:#000000;stop-opacity:1"
         id="stop3813" />
      <stop
         offset="1"
         style="stop-color:#000000;stop-opacity:0"
         id="stop3815" />
    </linearGradient>
    <radialGradient
       gradientTransform="matrix(1.5563924,0,0,0.16978827,70.270358,102.13029)"
       gradientUnits="userSpaceOnUse"
       xlink:href="#linearGradient3811"
       id="radialGradient4377"
       fy="93.467628"
       fx="-4.0287771"
       r="35.338131"
       cy="93.467628"
       cx="-4.0287771" />
    <filter
       style="color-interpolation-filters:sRGB;"
       inkscape:label="Colorize"
       id="filter3907">
      <feComposite
         in2="SourceGraphic"
         operator="arithmetic"
         k1="0"
         k2="1"
         result="composite1"
         id="feComposite3909" />
      <feColorMatrix
         in="composite1"
         values="1"
         type="saturate"
         result="colormatrix1"
         id="feColorMatrix3911" />
      <feFlood
         flood-opacity="0.854902"
         flood-color="rgb(23,141,46)"
         result="flood1"
         id="feFlood3913" />
      <feBlend
         in="flood1"
         in2="colormatrix1"
         mode="multiply"
         result="blend1"
         id="feBlend3915" />
      <feBlend
         in2="blend1"
         mode="screen"
         result="blend2"
         id="feBlend3917" />
      <feColorMatrix
         in="blend2"
         values="1"
         type="saturate"
         result="colormatrix2"
         id="feColorMatrix3919" />
      <feComposite
         in="colormatrix2"
         in2="SourceGraphic"
         operator="in"
         k2="1"
         result="composite2"
         id="feComposite3921" />
    </filter>
  </defs>
  <metadata
     id="metadata4384">
    <rdf:RDF>
      <cc:Work
         rdf:about="">
        <dc:format>image/svg+xml</dc:format>
        <dc:type
           rdf:resource="http://purl.org/dc/dcmitype/StillImage" />
        <dc:title />
      </cc:Work>
    </rdf:RDF>
  </metadata>
  <path
     d="M 119,118 A 55,6 0 0 1 9.0000016,118 55,6 0 1 1 119,118 Z"
     id="path3041"
     style="color:#000000;display:inline;overflow:visible;visibility:visible;opacity:0.2;fill:url(#radialGradient4377);fill-opacity:1;fill-rule:nonzero;stroke:none;stroke-width:1;marker:none;enable-background:accumulate" />
  <g
     transform="matrix(2.6999989,0,0,0.55555607,-0.8000019,94.888882)"
     id="g2036"
     style="display:inline">
    <g
       transform="matrix(1.052632,0,0,1.285713,-1.263158,-13.42854)"
       id="g3712"
       style="opacity:0.4">
      <rect
         width="5"
         height="7"
         x="38"
         y="40"
         id="rect2801"
         style="fill:url(#radialGradient2455-1);fill-opacity:1;stroke:none" />
      <rect
         width="5"
         height="7"
         x="-10"
         y="-47"
         transform="scale(-1,-1)"
         id="rect3696"
         style="fill:url(#radialGradient2457-5);fill-opacity:1;stroke:none" />
      <rect
         width="28"
         height="7.0000005"
         x="10"
         y="40"
         id="rect3700"
         style="fill:url(#linearGradient2459-7);fill-opacity:1;stroke:none" />
    </g>
  </g>
  <rect
     width="103"
     height="103"
     rx="6.0545406"
     ry="6.0545406"
     x="12.5"
     y="15.5"
     id="rect5505-21-3"
     style="color:#000000;display:inline;overflow:visible;visibility:visible;fill:url(#radialGradient3395);fill-opacity:1;fill-rule:nonzero;stroke:none;stroke-width:0.99999994;marker:none;enable-background:accumulate;filter:url(#filter3907)" />
  <rect
     width="101"
     height="101"
     rx="5"
     ry="5"
     x="13.5"
     y="16.5"
     id="rect6741-7"
     style="opacity:0.3;fill:none;stroke:url(#linearGradient3159);stroke-width:0.99999994;stroke-linecap:round;stroke-linejoin:round;stroke-miterlimit:4;stroke-dasharray:none;stroke-dashoffset:0;stroke-opacity:1" />
  <rect
     width="103"
     height="103"
     rx="6"
     ry="6"
     x="12.5"
     y="15.5"
     id="rect5505-21-6"
     style="color:#000000;display:inline;overflow:visible;visibility:visible;opacity:0.5;fill:none;stroke:#1c2c38;stroke-width:1;stroke-linecap:round;stroke-linejoin:round;stroke-miterlimit:4;stroke-dasharray:none;stroke-dashoffset:0;stroke-opacity:1;marker:none;enable-background:accumulate" />
  <g
     inkscape:groupmode="layer"
     id="layer1"
     inkscape:label="Layer 1"
     style="display:inline" />
  <g
     id="g4224">
    <path
       style="fill:#000000;fill-opacity:0.2745098"
       d="m 38.892606,73.127631 0,-2.884142 -7.210356,0 -7.210356,0 0,-5.82187 0,-5.821869 -0.940622,-0.622387 c -2.940425,-1.945602 -2.37547,-6.551053 0.938657,-7.651829 1.164279,-0.386712 2.345054,-0.297601 3.506458,0.264625 2.854145,1.381668 3.007491,5.7352 0.262127,7.441811 l -0.882477,0.548579 0,4.389399 0,4.389398 5.768284,0 5.768285,0 0,-2.884142 0,-2.884142 5.047249,0 5.047249,0 0,-6.542906 0,-6.542905 -0.940623,-0.622385 c -2.940425,-1.945603 -2.375468,-6.551055 0.938658,-7.65183 1.16428,-0.386711 2.345053,-0.297601 3.506458,0.264626 2.854145,1.381668 3.007492,5.735199 0.262126,7.441811 l -0.882477,0.548578 0,6.552506 0,6.552505 5.768285,0 5.768284,0 -0.0046,-9.508657 -0.0046,-9.508657 -0.719768,-0.331914 c -0.395871,-0.182553 -0.930539,-0.60825 -1.188147,-0.945993 -2.380615,-3.121147 -0.02173,-7.447707 3.843085,-7.048823 2.831284,0.292214 4.495179,3.01196 3.546324,5.796697 -0.330035,0.968598 -1.430195,2.188383 -2.132818,2.364731 l -0.455233,0.114256 0,9.53418 0,9.53418 5.768285,0 5.768284,0 0,-6.542906 0,-6.542905 -0.940623,-0.622385 c -2.940425,-1.945603 -2.375468,-6.551055 0.938658,-7.65183 1.16428,-0.386711 2.345053,-0.297601 3.506458,0.264626 2.85414,1.381668 3.007493,5.735199 0.262127,7.441811 l -0.882474,0.548578 0,6.552506 0,6.552505 5.047243,0 5.047253,0 0,2.884142 0,2.884142 5.768278,0 5.768313,0 0,-4.48693 0,-4.48693 -0.45524,-0.114258 c -1.1596,-0.291041 -2.428913,-2.324166 -2.428913,-3.890522 0,-2.336586 1.989633,-4.326213 4.326213,-4.326213 2.33659,0 4.32622,1.989627 4.32622,4.326213 0,1.566356 -1.26931,3.599481 -2.42892,3.890522 l -0.45523,0.114258 0,5.929001 0,5.929002 -7.210353,0 -7.210368,0 0,2.884142 0,2.884142 -25.957282,0 -25.957282,0 z m 49.030418,-4.326213 0,-4.326214 -23.073137,0 -23.073138,0 0,4.326214 0,4.326213 23.073138,0 23.073137,0 z m -42.819679,0.999616 c -0.894121,-0.894118 -0.26055,-2.441688 0.999617,-2.441688 0.351211,0 0.720715,0.163551 0.999617,0.442455 0.278903,0.278902 0.442454,0.648406 0.442454,0.999617 0,0.351211 -0.163551,0.720715 -0.442454,0.999616 -0.278902,0.278904 -0.648406,0.442455 -0.999617,0.442455 -0.351211,0 -0.720715,-0.163551 -0.999617,-0.442455 z m 5.768285,0 c -0.89412,-0.894118 -0.26055,-2.441688 0.999616,-2.441688 0.351211,0 0.720715,0.163551 0.999617,0.442455 0.278903,0.278902 0.442455,0.648406 0.442455,0.999617 0,0.351211 -0.163552,0.720715 -0.442455,0.999616 -0.278902,0.278904 -0.648406,0.442455 -0.999617,0.442455 -0.351211,0 -0.720714,-0.163551 -0.999616,-0.442455 z m 5.768284,0 c -0.89412,-0.894118 -0.260549,-2.441688 0.999617,-2.441688 0.351211,0 0.720715,0.163551 0.999617,0.442455 0.278903,0.278902 0.442454,0.648406 0.442454,0.999617 0,0.351211 -0.163551,0.720715 -0.442454,0.999616 -0.278902,0.278904 -0.648406,0.442455 -0.999617,0.442455 -0.351211,0 -0.720714,-0.163551 -0.999617,-0.442455 z M 26.913583,55.380323 c 0.894119,-0.894118 0.26055,-2.441688 -0.999617,-2.441688 -0.741062,0 -1.442072,0.701008 -1.442072,1.442071 0,0.741063 0.70101,1.442071 1.442072,1.442071 0.351211,0 0.720714,-0.16355 0.999617,-0.442454 z m 77.871857,0 c 0.89412,-0.894118 0.26055,-2.441688 -0.99962,-2.441688 -0.74106,0 -1.44206,0.701008 -1.44206,1.442071 0,0.741063 0.701,1.442071 1.44206,1.442071 0.35122,0 0.72072,-0.16355 0.99962,-0.442454 z M 51.428792,45.285826 c 0.89412,-0.89412 0.260549,-2.441689 -0.999617,-2.441689 -0.35121,0 -0.720715,0.16355 -0.999617,0.442453 -0.278903,0.278904 -0.442454,0.648406 -0.442454,0.999618 0,0.351211 0.163551,0.720714 0.442454,0.999618 0.278902,0.278903 0.648407,0.442453 0.999617,0.442453 0.351211,0 0.720715,-0.16355 0.999617,-0.442453 z m 28.841419,0 c 0.894125,-0.89412 0.260556,-2.441689 -0.999613,-2.441689 -0.741062,0 -1.442071,0.701009 -1.442071,1.442071 0,0.741062 0.701009,1.442071 1.442071,1.442071 0.351212,0 0.72072,-0.16355 0.999613,-0.442453 z M 65.849503,39.517541 c 0.894121,-0.894119 0.26055,-2.441689 -0.999616,-2.441689 -0.351211,0 -0.720715,0.163551 -0.999617,0.442454 -0.89412,0.894119 -0.26055,2.441688 0.999617,2.441688 0.351211,0 0.720715,-0.16355 0.999616,-0.442453 z"
       id="path4200"
       inkscape:connector-curvature="0"
       sodipodi:nodetypes="ccccccsssscccccccccccsssscccccccssssscccccccsssscccccccccccssssscccccccccccccccccccssssssssssssssssssssssssssssssssssssssssssssssss" />
    <path
       sodipodi:nodetypes="ccccccsssscccccccccccsssscccccccssssscccccccsssscccccccccccssssscccccccccccccccccccssssssssssssssssssssssssssssssssssssssssssssssss"
       inkscape:connector-curvature="0"
       id="path3398"
       d="m 37.466141,71.701166 0,-2.884142 -7.210355,0 -7.210356,0 0,-5.82187 0,-5.821868 -0.940623,-0.622387 c -2.940425,-1.945603 -2.375469,-6.551054 0.938657,-7.65183 1.164279,-0.386712 2.345054,-0.297601 3.506458,0.264625 2.854145,1.381668 3.007491,5.7352 0.262127,7.441812 l -0.882477,0.548578 0,4.3894 0,4.389397 5.768284,0 5.768285,0 0,-2.884142 0,-2.884142 5.047249,0 5.047249,0 0,-6.542905 0,-6.542906 -0.940623,-0.622385 c -2.940425,-1.945603 -2.375468,-6.551054 0.938658,-7.65183 1.16428,-0.386711 2.345053,-0.297601 3.506458,0.264626 2.854145,1.381668 3.007492,5.735199 0.262126,7.441811 l -0.882477,0.548579 0,6.552506 0,6.552504 5.768285,0 5.768284,0 -0.0046,-9.508657 -0.0046,-9.508657 -0.719768,-0.331914 c -0.395871,-0.182553 -0.930539,-0.608249 -1.188147,-0.945993 -2.380615,-3.121147 -0.02173,-7.447707 3.843085,-7.048823 2.831284,0.292214 4.495179,3.01196 3.546324,5.796698 -0.330034,0.968598 -1.430195,2.188382 -2.132818,2.36473 l -0.455233,0.114256 0,9.53418 0,9.53418 5.768285,0 5.768284,0 0,-6.542905 0,-6.542906 -0.940623,-0.622385 c -2.940425,-1.945603 -2.375468,-6.551054 0.938659,-7.65183 1.164279,-0.386711 2.345052,-0.297601 3.506456,0.264626 2.854146,1.381668 3.007492,5.735199 0.262128,7.441811 l -0.882477,0.548579 0,6.552506 0,6.552504 5.047248,0 5.04725,0 0,2.884142 0,2.884142 5.768284,0 5.768293,0 0,-4.486929 0,-4.486931 -0.45524,-0.114258 c -1.159603,-0.29104 -2.428913,-2.324165 -2.428913,-3.890522 0,-2.336586 1.989633,-4.326213 4.326213,-4.326213 2.33659,0 4.32622,1.989627 4.32622,4.326213 0,1.566357 -1.26931,3.599482 -2.42892,3.890522 l -0.45523,0.114258 0,5.929001 0,5.929002 -7.210353,0 -7.210354,0 0,2.884142 0,2.884142 -25.957281,0 -25.957281,0 z m 49.03042,-4.326213 0,-4.326214 -23.073139,0 -23.073138,0 0,4.326214 0,4.326213 23.073138,0 23.073139,0 z m -42.81968,0.999616 c -0.894121,-0.894118 -0.260551,-2.441688 0.999616,-2.441688 0.351211,0 0.720715,0.163552 0.999617,0.442455 0.278903,0.278902 0.442454,0.648406 0.442454,0.999617 0,0.351211 -0.163551,0.720715 -0.442454,0.999616 -0.278902,0.278904 -0.648406,0.442455 -0.999617,0.442455 -0.351211,0 -0.720715,-0.163551 -0.999616,-0.442455 z m 5.768284,0 c -0.89412,-0.894118 -0.26055,-2.441688 0.999616,-2.441688 0.351211,0 0.720715,0.163552 0.999618,0.442455 0.278903,0.278902 0.442454,0.648406 0.442454,0.999617 0,0.351211 -0.163551,0.720715 -0.442454,0.999616 -0.278903,0.278904 -0.648407,0.442455 -0.999618,0.442455 -0.351211,0 -0.720714,-0.163551 -0.999616,-0.442455 z m 5.768285,0 c -0.89412,-0.894118 -0.26055,-2.441688 0.999616,-2.441688 0.351211,0 0.720715,0.163552 0.999617,0.442455 0.278903,0.278902 0.442454,0.648406 0.442454,0.999617 0,0.351211 -0.163551,0.720715 -0.442454,0.999616 -0.278902,0.278904 -0.648406,0.442455 -0.999617,0.442455 -0.351211,0 -0.720714,-0.163551 -0.999616,-0.442455 z M 25.487118,53.953858 c 0.894119,-0.894118 0.26055,-2.441688 -0.999617,-2.441688 -0.741062,0 -1.442071,0.701009 -1.442071,1.442071 0,0.741063 0.701009,1.442071 1.442071,1.442071 0.351211,0 0.720714,-0.16355 0.999617,-0.442454 z m 77.871842,0 c 0.89412,-0.894118 0.26055,-2.441688 -0.99962,-2.441688 -0.74106,0 -1.44206,0.701009 -1.44206,1.442071 0,0.741063 0.701,1.442071 1.44206,1.442071 0.35122,0 0.72072,-0.16355 0.99962,-0.442454 z M 50.002327,43.859361 c 0.89412,-0.894119 0.26055,-2.441689 -0.999616,-2.441689 -0.351211,0 -0.720715,0.16355 -0.999618,0.442453 -0.278903,0.278904 -0.442454,0.648407 -0.442454,0.999618 0,0.351211 0.163551,0.720715 0.442454,0.999618 0.278903,0.278903 0.648407,0.442453 0.999618,0.442453 0.351211,0 0.720714,-0.16355 0.999616,-0.442453 z m 28.841423,0 c 0.89412,-0.894119 0.26055,-2.441689 -0.999617,-2.441689 -0.741062,0 -1.442071,0.701009 -1.442071,1.442071 0,0.741063 0.701009,1.442071 1.442071,1.442071 0.351211,0 0.720715,-0.16355 0.999617,-0.442453 z M 64.423038,38.091076 c 0.894121,-0.894119 0.260551,-2.441689 -0.999616,-2.441689 -0.351211,0 -0.720715,0.163551 -0.999616,0.442454 -0.894121,0.894119 -0.260551,2.441689 0.999616,2.441689 0.351211,0 0.720715,-0.163551 0.999616,-0.442454 z"
       style="fill:#ffffff" />
  </g>
  <text
     xml:space="preserve"
     style="font-style:normal;font-weight:normal;font-size:40px;line-height:125%;font-family:sans-serif;letter-spacing:0px;word-spacing:0px;fill:#ffffff;fill-opacity:1;stroke:none;stroke-width:1px;stroke-linecap:butt;stroke-linejoin:miter;stroke-opacity:1;"
     x="18.408747"
     y="89.456688"
     id="text4202"
     sodipodi:linespacing="125%"><tspan
       sodipodi:role="line"
       id="tspan4204"
       x="18.408747"
       y="89.456688" /></text>
  <g
     id="g4228"
     transform="translate(0.23515845,0)">
    <text
       xml:space="preserve"
       style="font-style:normal;font-variant:normal;font-weight:600;font-stretch:normal;font-size:15px;line-height:89.99999762%;font-family:Raleway;-inkscape-font-specification:'Raleway, Semi-Bold';text-align:start;letter-spacing:0px;word-spacing:0px;writing-mode:lr-tb;text-anchor:start;fill:#000000;fill-opacity:0.2745098;stroke:none;stroke-width:1px;stroke-linecap:butt;stroke-linejoin:miter;stroke-opacity:1"
       x="24.380144"
       y="100.49621"
       id="text4214"
       sodipodi:linespacing="89.999998%"><tspan
         y="100.49621"
         x="24.380144"
         id="tspan4222"
         sodipodi:role="line">/etc/hosts</tspan></text>
    <text
       sodipodi:linespacing="89.999998%"
       id="text4206"
       y="99.345657"
       x="23.229601"
       style="font-style:normal;font-variant:normal;font-weight:600;font-stretch:normal;font-size:15px;line-height:89.99999762%;font-family:Raleway;-inkscape-font-specification:'Raleway, Semi-Bold';text-align:start;letter-spacing:0px;word-spacing:0px;writing-mode:lr-tb;text-anchor:start;fill:#ffffff;fill-opacity:1;stroke:none;stroke-width:1px;stroke-linecap:butt;stroke-linejoin:miter;stroke-opacity:1"
       xml:space="preserve"><tspan
         y="99.345657"
         x="23.229601"
         id="tspan4220"
         sodipodi:role="line">/etc/hosts</tspan></text>
  </g>
</svg>
